<?xml version="1.0" encoding="UTF-8" standalone="no"?>
<!DOCTYPE svg PUBLIC "-//W3C//DTD SVG 1.1//EN"
 "http://www.w3.org/Graphics/SVG/1.1/DTD/svg11.dtd">
<!-- Generated by graphviz version 2.28.0 (20110507.0327)
 -->
<!-- Title: G Pages: 1 -->
<svg width="652pt" height="1024pt"
 viewBox="0.00 0.00 652.00 1024.00" xmlns="http://www.w3.org/2000/svg" xmlns:xlink="http://www.w3.org/1999/xlink">
<g id="graph1" class="graph" transform="scale(1 1) rotate(0) translate(4 1020)">
<title>G</title>
<polygon fill="white" stroke="white" points="-4,5 -4,-1020 649,-1020 649,5 -4,5"/>
<g id="graph2" class="cluster"><title>cluster_DynamoQL</title>
<polyline fill="none" stroke="gray" points="191,-44 624,-44 "/>
<path fill="none" stroke="gray" d="M624,-44C630,-44 636,-50 636,-56"/>
<polyline fill="none" stroke="gray" points="636,-56 636,-996 "/>
<path fill="none" stroke="gray" d="M636,-996C636,-1002 630,-1008 624,-1008"/>
<polyline fill="none" stroke="gray" points="624,-1008 191,-1008 "/>
<path fill="none" stroke="gray" d="M191,-1008C185,-1008 179,-1002 179,-996"/>
<polyline fill="none" stroke="gray" points="179,-996 179,-56 "/>
<path fill="none" stroke="gray" d="M179,-56C179,-50 185,-44 191,-44"/>
<text text-anchor="middle" x="407.5" y="-995.2" font-family="Times New Roman,serif" font-size="11.00" fill="gray">DynamoQL</text>
</g>
<g id="graph3" class="cluster"><title>cluster_DynamoQL\Common</title>
<polyline fill="none" stroke="gray" points="199,-152 616,-152 "/>
<path fill="none" stroke="gray" d="M616,-152C622,-152 628,-158 628,-164"/>
<polyline fill="none" stroke="gray" points="628,-164 628,-968 "/>
<path fill="none" stroke="gray" d="M628,-968C628,-974 622,-980 616,-980"/>
<polyline fill="none" stroke="gray" points="616,-980 199,-980 "/>
<path fill="none" stroke="gray" d="M199,-980C193,-980 187,-974 187,-968"/>
<polyline fill="none" stroke="gray" points="187,-968 187,-164 "/>
<path fill="none" stroke="gray" d="M187,-164C187,-158 193,-152 199,-152"/>
<text text-anchor="middle" x="407.5" y="-967.2" font-family="Times New Roman,serif" font-size="11.00" fill="gray">Common</text>
</g>
<g id="graph4" class="cluster"><title>cluster_DynamoQL\Common\ConditionParser</title>
<polyline fill="none" stroke="gray" points="207,-690 608,-690 "/>
<path fill="none" stroke="gray" d="M608,-690C614,-690 620,-696 620,-702"/>
<polyline fill="none" stroke="gray" points="620,-702 620,-940 "/>
<path fill="none" stroke="gray" d="M620,-940C620,-946 614,-952 608,-952"/>
<polyline fill="none" stroke="gray" points="608,-952 207,-952 "/>
<path fill="none" stroke="gray" d="M207,-952C201,-952 195,-946 195,-940"/>
<polyline fill="none" stroke="gray" points="195,-940 195,-702 "/>
<path fill="none" stroke="gray" d="M195,-702C195,-696 201,-690 207,-690"/>
<text text-anchor="middle" x="407.5" y="-939.2" font-family="Times New Roman,serif" font-size="11.00" fill="gray">ConditionParser</text>
</g>
<g id="graph5" class="cluster"><title>cluster_DynamoQL\Common\ConditionParser\Exception</title>
<polyline fill="none" stroke="gray" points="428,-852 600,-852 "/>
<path fill="none" stroke="gray" d="M600,-852C606,-852 612,-858 612,-864"/>
<polyline fill="none" stroke="gray" points="612,-864 612,-912 "/>
<path fill="none" stroke="gray" d="M612,-912C612,-918 606,-924 600,-924"/>
<polyline fill="none" stroke="gray" points="600,-924 428,-924 "/>
<path fill="none" stroke="gray" d="M428,-924C422,-924 416,-918 416,-912"/>
<polyline fill="none" stroke="gray" points="416,-912 416,-864 "/>
<path fill="none" stroke="gray" d="M416,-864C416,-858 422,-852 428,-852"/>
<text text-anchor="middle" x="514" y="-911.2" font-family="Times New Roman,serif" font-size="11.00" fill="gray">Exception</text>
</g>
<g id="graph6" class="cluster"><title>cluster_DynamoQL\Common\Exception</title>
<polyline fill="none" stroke="gray" points="452,-556 576,-556 "/>
<path fill="none" stroke="gray" d="M576,-556C582,-556 588,-562 588,-568"/>
<polyline fill="none" stroke="gray" points="588,-568 588,-670 "/>
<path fill="none" stroke="gray" d="M588,-670C588,-676 582,-682 576,-682"/>
<polyline fill="none" stroke="gray" points="576,-682 452,-682 "/>
<path fill="none" stroke="gray" d="M452,-682C446,-682 440,-676 440,-670"/>
<polyline fill="none" stroke="gray" points="440,-670 440,-568 "/>
<path fill="none" stroke="gray" d="M440,-568C440,-562 446,-556 452,-556"/>
<text text-anchor="middle" x="514" y="-669.2" font-family="Times New Roman,serif" font-size="11.00" fill="gray">Exception</text>
</g>
<g id="graph7" class="cluster"><title>cluster_DynamoQL\Common\Enum</title>
<polyline fill="none" stroke="gray" points="482,-476 546,-476 "/>
<path fill="none" stroke="gray" d="M546,-476C552,-476 558,-482 558,-488"/>
<polyline fill="none" stroke="gray" points="558,-488 558,-536 "/>
<path fill="none" stroke="gray" d="M558,-536C558,-542 552,-548 546,-548"/>
<polyline fill="none" stroke="gray" points="546,-548 482,-548 "/>
<path fill="none" stroke="gray" d="M482,-548C476,-548 470,-542 470,-536"/>
<polyline fill="none" stroke="gray" points="470,-536 470,-488 "/>
<path fill="none" stroke="gray" d="M470,-488C470,-482 476,-476 482,-476"/>
<text text-anchor="middle" x="514" y="-535.2" font-family="Times New Roman,serif" font-size="11.00" fill="gray">Enum</text>
</g>
<!-- \\DynamoQL\\Common\\ConditionParser\\Exception\\MissingOperatorException -->
<g id="node5" class="node"><title>\\DynamoQL\\Common\\ConditionParser\\Exception\\MissingOperatorException</title>
<a xlink:href="Common.ConditionParser.Exception.MissingOperatorException.html" xlink:title="MissingOperatorException" target="_parent">
<polygon fill="none" stroke="black" points="603.5,-896 424.5,-896 424.5,-860 603.5,-860 603.5,-896"/>
<text text-anchor="middle" x="514" y="-875.2" font-family="Courier,monospace" font-size="11.00">MissingOperatorException</text>
</a>
</g>
<!-- \\DynamoQL\\Common\\ConditionParser\\ParserException -->
<g id="node7" class="node"><title>\\DynamoQL\\Common\\ConditionParser\\ParserException</title>
<a xlink:href="Common.ConditionParser.ParserException.html" xlink:title="ParserException" target="_parent">
<polygon fill="none" stroke="black" points="321,-815 203,-815 203,-779 321,-779 321,-815"/>
<text text-anchor="middle" x="262" y="-794.2" font-family="Courier,monospace" font-size="11.00">ParserException</text>
</a>
</g>
<!-- \\DynamoQL\\Common\\ConditionParser\\Exception\\MissingOperatorException&#45;&gt;\\DynamoQL\\Common\\ConditionParser\\ParserException -->
<g id="edge12" class="edge"><title>\\DynamoQL\\Common\\ConditionParser\\Exception\\MissingOperatorException&#45;&gt;\\DynamoQL\\Common\\ConditionParser\\ParserException</title>
<path fill="none" stroke="black" d="M429.716,-859.942C425.059,-858.674 420.46,-857.358 416,-856 381.621,-845.533 343.946,-831.044 314.584,-819.043"/>
<polygon fill="none" stroke="black" points="315.542,-815.652 304.962,-815.078 312.875,-822.124 315.542,-815.652"/>
</g>
<!-- \\DynamoQL\\Common\\ConditionParser\\Delete -->
<g id="node6" class="node"><title>\\DynamoQL\\Common\\ConditionParser\\Delete</title>
<a xlink:href="Common.ConditionParser.Delete.html" xlink:title="Delete" target="_parent">
<polygon fill="none" stroke="black" points="542.5,-842 485.5,-842 485.5,-806 542.5,-806 542.5,-842"/>
<text text-anchor="middle" x="514" y="-821.2" font-family="Courier,monospace" font-size="11.00">Delete</text>
</a>
</g>
<!-- \\Exception -->
<g id="node29" class="node"><title>\\Exception</title>
<ellipse fill="none" stroke="black" cx="50" cy="-725" rx="50.0912" ry="18"/>
<text text-anchor="middle" x="50" y="-721.3" font-family="Times New Roman,serif" font-size="14.00" fill="gray">\Exception</text>
</g>
<!-- \\DynamoQL\\Common\\ConditionParser\\ParserException&#45;&gt;\\Exception -->
<g id="edge14" class="edge"><title>\\DynamoQL\\Common\\ConditionParser\\ParserException&#45;&gt;\\Exception</title>
<path fill="none" stroke="black" d="M202.715,-783.922C192.406,-781.232 181.83,-778.226 172,-775 144.287,-765.906 113.955,-753.366 90.5922,-743.119"/>
<polygon fill="none" stroke="black" points="91.9183,-739.879 81.3575,-739.03 89.0839,-746.279 91.9183,-739.879"/>
</g>
<!-- \\DynamoQL\\Common\\ConditionParser\\Select -->
<g id="node8" class="node"><title>\\DynamoQL\\Common\\ConditionParser\\Select</title>
<a xlink:href="Common.ConditionParser.Select.html" xlink:title="Select" target="_parent">
<polygon fill="none" stroke="black" points="542.5,-788 485.5,-788 485.5,-752 542.5,-752 542.5,-788"/>
<text text-anchor="middle" x="514" y="-767.2" font-family="Courier,monospace" font-size="11.00">Select</text>
</a>
</g>
<!-- \\DynamoQL\\Common\\ConditionParser\\Update -->
<g id="node9" class="node"><title>\\DynamoQL\\Common\\ConditionParser\\Update</title>
<a xlink:href="Common.ConditionParser.Update.html" xlink:title="Update" target="_parent">
<polygon fill="none" stroke="black" points="542.5,-734 485.5,-734 485.5,-698 542.5,-698 542.5,-734"/>
<text text-anchor="middle" x="514" y="-713.2" font-family="Courier,monospace" font-size="11.00">Update</text>
</a>
</g>
<!-- \\DynamoQL\\Common\\Exception\\DynamoQLException -->
<g id="node11" class="node"><title>\\DynamoQL\\Common\\Exception\\DynamoQLException</title>
<a xlink:href="Common.Exception.DynamoQLException.html" xlink:title="DynamoQLException" target="_parent">
<polygon fill="none" stroke="black" points="579.5,-654 448.5,-654 448.5,-618 579.5,-618 579.5,-654"/>
<text text-anchor="middle" x="514" y="-633.2" font-family="Courier,monospace" font-size="11.00">DynamoQLException</text>
</a>
</g>
<!-- \\DynamoQL\\Common\\Exception\\DynamoQLException&#45;&gt;\\Exception -->
<g id="edge18" class="edge"><title>\\DynamoQL\\Common\\Exception\\DynamoQLException&#45;&gt;\\Exception</title>
<path fill="none" stroke="black" d="M448.297,-642.248C379.262,-649.665 266.991,-663.889 172,-686 146.159,-692.015 117.906,-700.98 95.2042,-708.799"/>
<polygon fill="none" stroke="black" points="93.8037,-705.581 85.5163,-712.182 96.1111,-712.19 93.8037,-705.581"/>
</g>
<!-- \\DynamoQL\\Common\\Exception\\ExceptionManager -->
<g id="node12" class="node"><title>\\DynamoQL\\Common\\Exception\\ExceptionManager</title>
<a xlink:href="Common.Exception.ExceptionManager.html" xlink:title="ExceptionManager" target="_parent">
<polygon fill="none" stroke="black" points="576.5,-600 451.5,-600 451.5,-564 576.5,-564 576.5,-600"/>
<text text-anchor="middle" x="514" y="-579.2" font-family="Courier,monospace" font-size="11.00">ExceptionManager</text>
</a>
</g>
<!-- \\DynamoQL\\Common\\Enum\\Response -->
<g id="node14" class="node"><title>\\DynamoQL\\Common\\Enum\\Response</title>
<a xlink:href="Common.Enum.Response.html" xlink:title="Response" target="_parent">
<polygon fill="none" stroke="black" points="549.5,-520 478.5,-520 478.5,-484 549.5,-484 549.5,-520"/>
<text text-anchor="middle" x="514" y="-499.2" font-family="Courier,monospace" font-size="11.00">Response</text>
</a>
</g>
<!-- \\Aws\\Common\\Enum -->
<g id="node31" class="node"><title>\\Aws\\Common\\Enum</title>
<ellipse fill="none" stroke="black" cx="262" cy="-18" rx="89.8845" ry="18"/>
<text text-anchor="middle" x="262" y="-14.3" font-family="Times New Roman,serif" font-size="14.00" fill="gray">\Aws\Common\Enum</text>
</g>
<!-- \\DynamoQL\\Common\\Enum\\Response&#45;&gt;\\Aws\\Common\\Enum -->
<g id="edge16" class="edge"><title>\\DynamoQL\\Common\\Enum\\Response&#45;&gt;\\Aws\\Common\\Enum</title>
<path fill="none" stroke="black" d="M478.186,-502.261C457.758,-500.608 432.75,-495.203 416,-480 285.138,-361.226 265.979,-128.128 263.349,-46.809"/>
<polygon fill="none" stroke="black" points="266.836,-46.2751 263.078,-36.3695 259.839,-46.4571 266.836,-46.2751"/>
</g>
<!-- \\DynamoQL\\Common\\ConditionParser -->
<g id="node15" class="node"><title>\\DynamoQL\\Common\\ConditionParser</title>
<a xlink:href="Common.ConditionParser.html" xlink:title="ConditionParser" target="_parent">
<polygon fill="none" stroke="black" points="573,-466 455,-466 455,-430 573,-430 573,-466"/>
<text text-anchor="middle" x="514" y="-445.2" font-family="Courier,monospace" font-size="11.00">ConditionParser</text>
</a>
</g>
<!-- \\DynamoQL\\Common\\DKeyData -->
<g id="node16" class="node"><title>\\DynamoQL\\Common\\DKeyData</title>
<a xlink:href="Common.DKeyData.html" xlink:title="DKeyData" target="_parent">
<polygon fill="none" stroke="black" points="549.5,-412 478.5,-412 478.5,-376 549.5,-376 549.5,-412"/>
<text text-anchor="middle" x="514" y="-391.2" font-family="Courier,monospace" font-size="11.00">DKeyData</text>
</a>
</g>
<!-- \\DynamoQL\\Common\\DKeyPair -->
<g id="node17" class="node"><title>\\DynamoQL\\Common\\DKeyPair</title>
<a xlink:href="Common.DKeyPair.html" xlink:title="DKeyPair" target="_parent">
<polygon fill="none" stroke="black" points="549.5,-358 478.5,-358 478.5,-322 549.5,-322 549.5,-358"/>
<text text-anchor="middle" x="514" y="-337.2" font-family="Courier,monospace" font-size="11.00">DKeyPair</text>
</a>
</g>
<!-- \\DynamoQL\\Common\\Helper -->
<g id="node18" class="node"><title>\\DynamoQL\\Common\\Helper</title>
<a xlink:href="Common.Helper.html" xlink:title="Helper" target="_parent">
<polygon fill="none" stroke="black" points="542.5,-304 485.5,-304 485.5,-268 542.5,-268 542.5,-304"/>
<text text-anchor="middle" x="514" y="-283.2" font-family="Courier,monospace" font-size="11.00">Helper</text>
</a>
</g>
<!-- \\DynamoQL\\Common\\TypeConverter -->
<g id="node19" class="node"><title>\\DynamoQL\\Common\\TypeConverter</title>
<a xlink:href="Common.TypeConverter.html" xlink:title="TypeConverter" target="_parent">
<polygon fill="none" stroke="black" points="566,-250 462,-250 462,-214 566,-214 566,-250"/>
<text text-anchor="middle" x="514" y="-229.2" font-family="Courier,monospace" font-size="11.00">TypeConverter</text>
</a>
</g>
<!-- \\DynamoQL\\Common\\UUIDManager -->
<g id="node20" class="node"><title>\\DynamoQL\\Common\\UUIDManager</title>
<a xlink:href="Common.UUIDManager.html" xlink:title="UUIDManager" target="_parent">
<polygon fill="none" stroke="black" points="559.5,-196 468.5,-196 468.5,-160 559.5,-160 559.5,-196"/>
<text text-anchor="middle" x="514" y="-175.2" font-family="Courier,monospace" font-size="11.00">UUIDManager</text>
</a>
</g>
<!-- \\DynamoQL\\DynamoQL -->
<g id="node25" class="node"><title>\\DynamoQL\\DynamoQL</title>
<a xlink:href="DynamoQL.html" xlink:title="DynamoQL" target="_parent">
<polygon fill="none" stroke="black" points="549.5,-142 478.5,-142 478.5,-106 549.5,-106 549.5,-142"/>
<text text-anchor="middle" x="514" y="-121.2" font-family="Courier,monospace" font-size="11.00">DynamoQL</text>
</a>
</g>
<!-- \\DynamoQL\\RuntimeDebug -->
<g id="node26" class="node"><title>\\DynamoQL\\RuntimeDebug</title>
<a xlink:href="RuntimeDebug.html" xlink:title="RuntimeDebug" target="_parent">
<polygon fill="none" stroke="black" points="563,-88 465,-88 465,-52 563,-52 563,-88"/>
<text text-anchor="middle" x="514" y="-67.2" font-family="Courier,monospace" font-size="11.00">RuntimeDebug</text>
</a>
</g>
</g>
</svg>
